<?xml version="1.0" standalone="no"?><!DOCTYPE svg PUBLIC "-//W3C//DTD SVG 1.1//EN" "http://www.w3.org/Graphics/SVG/1.1/DTD/svg11.dtd"><svg t="1625064683023" class="icon" viewBox="0 0 1024 1024" version="1.1" xmlns="http://www.w3.org/2000/svg" p-id="2345" width="48" height="48" xmlns:xlink="http://www.w3.org/1999/xlink"><defs><style type="text/css"></style></defs><path d="M916.48 230.4c-23.04-17.92-53.76-15.36-71.68 7.68L465.92 696.32l-281.6-204.8c-23.04-15.36-53.76-12.8-71.68 10.24-15.36 23.04-12.8 53.76 10.24 71.68l320 232.96s2.56 0 2.56 2.56c2.56 0 2.56 2.56 5.12 2.56s2.56 2.56 5.12 2.56 2.56 0 5.12 2.56h30.72c2.56 0 2.56 0 5.12-2.56 2.56 0 2.56-2.56 5.12-2.56s2.56-2.56 5.12-2.56 2.56-2.56 5.12-2.56 2.56-2.56 2.56-2.56l2.56-2.56 409.6-496.64c12.8-23.04 10.24-56.32-10.24-74.24z" p-id="2346" fill="#d81e06"></path></svg>